<svg width="554" height="462" viewBox="0 0 554 462" fill="none" xmlns="http://www.w3.org/2000/svg">
<g opacity="0.3">
<path d="M276.947 166.136C296.071 166.136 314.411 173.739 327.943 187.271C341.455 200.783 349.058 219.123 349.058 238.247C349.057 257.072 341.691 275.137 328.572 288.605L327.943 289.243C314.411 302.755 296.071 310.357 276.947 310.357C257.824 310.357 239.483 302.755 225.972 289.243C212.439 275.71 204.836 257.37 204.836 238.247C204.836 219.422 212.203 201.356 225.342 187.908L225.972 187.271C239.483 173.739 257.824 166.136 276.947 166.136Z" stroke="url(#paint0_linear_2611_314)"/>
<path d="M499.5 93.917V319.374C499.5 344.259 493.381 366.881 481.146 387.271C468.906 407.673 452.587 423.991 432.187 436.231C411.839 448.423 389.238 454.5 364.374 454.5H138.917V365.083H364.374C377.002 365.083 387.792 360.638 396.715 351.715C405.616 342.814 410.083 332.024 410.083 319.374V93.917H499.5ZM183.626 3.5H409.083V92.917H183.626C171.419 92.917 160.761 97.3873 151.631 106.28H151.63C142.493 115.202 137.917 125.993 137.917 138.626V364.083H48.5V138.626C48.5 113.762 54.5759 91.1178 66.7676 70.7275C79.0076 50.3278 95.4111 34.0528 115.982 21.8545C136.588 9.61835 159.148 3.5 183.626 3.5Z" stroke="url(#paint1_linear_2611_314)"/>
</g>
<defs>
<linearGradient id="paint0_linear_2611_314" x1="276.947" y1="165.636" x2="276.947" y2="310.857" gradientUnits="userSpaceOnUse">
<stop stop-color="#999999"/>
<stop offset="1" stop-color="white" stop-opacity="0.11"/>
</linearGradient>
<linearGradient id="paint1_linear_2611_314" x1="274" y1="3" x2="274" y2="455" gradientUnits="userSpaceOnUse">
<stop stop-color="#999999"/>
<stop offset="1" stop-color="white" stop-opacity="0.11"/>
</linearGradient>
</defs>
</svg>
