<svg width="30" height="25" viewBox="0 0 30 25" fill="none" xmlns="http://www.w3.org/2000/svg">
<path d="M15.6645 8.99512C16.7296 8.99512 17.751 9.41855 18.5047 10.1722C19.2572 10.9247 19.6806 11.9461 19.6806 13.0112C19.6806 14.0763 19.2572 15.0977 18.5047 15.8514C17.751 16.6039 16.7296 17.0273 15.6645 17.0273C14.5995 17.0273 13.578 16.6039 12.8255 15.8514C12.0719 15.0977 11.6484 14.0763 11.6484 13.0112C11.6484 11.9461 12.0719 10.9247 12.8255 10.1722C13.578 9.41855 14.5995 8.99512 15.6645 8.99512Z" fill="black"/>
<path d="M27.5 5.50098V17.499C27.4999 18.7937 27.1823 19.9599 26.5518 21.0107C25.9146 22.0726 25.0678 22.9195 24.0059 23.5566C22.9578 24.1845 21.793 24.4999 20.499 24.5H8.50098V20.499H20.499C21.3219 20.4989 22.0386 20.2036 22.6211 19.6211C23.2022 19.04 23.4989 18.3234 23.499 17.499V5.50098H27.5ZM10.501 0.5H22.499V4.50098H10.501C9.69626 4.50109 8.99052 4.80114 8.40234 5.37402H8.40137C7.80624 5.95511 7.50108 6.67362 7.50098 7.50098V19.499H3.5V7.50098C3.50007 6.20695 3.81433 5.03883 4.44238 3.98828L4.44336 3.98926C5.0797 2.9287 5.93005 2.08427 7.00098 1.44922C8.06591 0.816843 9.23017 0.500073 10.501 0.5Z" fill="#0A0A0A" stroke="black"/>
</svg>
