<svg width="554" height="462" viewBox="0 0 554 462" fill="none" xmlns="http://www.w3.org/2000/svg">
<g opacity="0.3">
<path d="M279.48 166.933C298.817 166.933 317.361 174.62 331.045 188.304C344.707 201.966 352.395 220.51 352.395 239.847C352.395 258.881 344.945 277.148 331.681 290.767L331.045 291.411C317.361 305.073 298.817 312.761 279.48 312.761C260.144 312.761 241.599 305.073 227.938 291.411C214.254 277.728 206.566 259.183 206.566 239.847C206.566 220.812 214.015 202.546 227.3 188.948L227.938 188.304C241.599 174.62 260.144 166.933 279.48 166.933Z" stroke="white"/>
<path d="M504.5 93.917V321.874C504.5 347.035 498.313 369.908 485.942 390.524C473.566 411.152 457.066 427.653 436.438 440.029C415.865 452.356 393.014 458.5 367.874 458.5H139.917V368.083H367.874C380.64 368.083 391.548 363.589 400.568 354.568C409.567 345.57 414.083 334.662 414.083 321.874V93.917H504.5ZM185.126 2.5H413.083V92.917H185.126C172.785 92.917 162.011 97.4364 152.781 106.427H152.78C143.543 115.446 138.917 126.355 138.917 139.126V367.083H48.5V139.126C48.5 113.986 54.6436 91.0904 66.9707 70.4736C79.3465 49.8477 95.932 33.3922 116.731 21.0586H116.732C137.567 8.68665 160.376 2.5 185.126 2.5Z" stroke="white"/>
</g>
</svg>
