<svg width="708" height="142" viewBox="0 0 708 142" fill="none" xmlns="http://www.w3.org/2000/svg">
<g clip-path="url(#clip0_2611_290)">
<path d="M684.826 108.716V50.7587C684.826 47.5639 683.692 44.833 681.432 42.5662C679.165 40.3059 676.434 39.1725 673.24 39.1725H615.282V16H673.24C679.636 16 685.449 17.5775 690.685 20.7193C695.935 23.8479 700.131 28.037 703.279 33.2866C706.421 38.5362 707.998 44.3624 707.998 50.7587V108.716H684.826ZM626.868 131.889C620.465 131.889 614.646 130.318 609.396 127.17C604.16 124.028 599.971 119.839 596.829 114.602C593.68 109.353 592.109 103.533 592.109 97.1302V39.1725H615.282V97.1302C615.282 100.332 616.409 103.063 618.676 105.323C620.936 107.59 623.667 108.716 626.868 108.716H684.826V131.889H626.868Z" fill="white"/>
<path d="M518.281 131.889V50.7587C518.281 47.5639 517.114 44.833 514.781 42.5662C512.461 40.3059 509.704 39.1725 506.509 39.1725H471.75V16H506.509C512.905 16 518.731 17.5775 523.981 20.7193C529.23 23.8479 533.426 28.037 536.575 33.2866C539.716 38.5362 541.294 44.3624 541.294 50.7587V131.889H518.281ZM541.294 39.1725V16H587.639V39.1725H541.294Z" fill="white"/>
<path d="M397.898 131.889V50.7587C397.898 47.5639 396.731 44.833 394.398 42.5662C392.078 40.3059 389.321 39.1725 386.126 39.1725H351.367V16H386.126C392.522 16 398.348 17.5775 403.598 20.7193C408.848 23.8479 413.043 28.037 416.192 33.2866C419.334 38.5362 420.911 44.3624 420.911 50.7587V131.889H397.898ZM420.911 39.1725V16H467.256V39.1725H420.911Z" fill="white"/>
<path d="M323.716 108.716V50.7587C323.716 47.5639 322.583 44.833 320.323 42.5662C318.056 40.3059 315.325 39.1725 312.13 39.1725H254.172V16H312.13C318.526 16 324.34 17.5775 329.576 20.7193C334.825 23.8479 339.021 28.037 342.17 33.2866C345.311 38.5362 346.889 44.3624 346.889 50.7587V108.716H323.716ZM265.759 131.889C259.356 131.889 253.536 130.318 248.287 127.17C243.05 124.028 238.861 119.839 235.719 114.602C232.571 109.353 231 103.533 231 97.1302V39.1725H254.172V97.1302C254.172 100.332 255.299 103.063 257.566 105.323C259.826 107.59 262.557 108.716 265.759 108.716H323.716V131.889H265.759Z" fill="white"/>
<path d="M82.607 49.9863C88.881 49.9863 94.8979 52.4806 99.3376 56.9204C103.77 61.3532 106.265 67.3701 106.265 73.6441C106.265 79.9181 103.77 85.935 99.3376 90.3747C94.8979 94.8075 88.881 97.3018 82.607 97.3018C76.333 97.3018 70.3161 94.8075 65.8833 90.3747C61.4435 85.935 58.9492 79.9181 58.9492 73.6441C58.9492 67.3701 61.4435 61.3532 65.8833 56.9204C70.3161 52.4806 76.333 49.9863 82.607 49.9863Z" fill="white"/>
<path d="M8 114.809V41.1889C8 33.0598 9.98711 25.6533 13.9752 18.9833C17.9772 12.3133 23.3411 6.99114 30.0667 3.00302C36.8062 -0.998993 44.1849 -3 52.1889 -3H125.809V26.4593H52.1889C48.2564 26.4593 44.8241 27.8975 41.8782 30.767C38.9322 33.6434 37.4593 37.1174 37.4593 41.1889V114.809H8ZM37.4593 144.269V114.809H111.08C115.151 114.809 118.625 113.378 121.502 110.502C124.371 107.632 125.809 104.158 125.809 100.08V26.4593H155.269V100.08C155.269 108.216 153.268 115.615 149.266 122.285C145.264 128.955 139.928 134.291 133.257 138.293C126.601 142.281 119.209 144.269 111.08 144.269H37.4593Z" fill="white"/>
</g>
<defs>
<clipPath id="clip0_2611_290">
<rect width="708" height="142" fill="white"/>
</clipPath>
</defs>
</svg>
