<svg width="100" height="20" viewBox="0 0 100 20" fill="none" xmlns="http://www.w3.org/2000/svg">
<path d="M12.022 7.11816C12.8648 7.11816 13.6731 7.45325 14.2696 8.04969C14.8651 8.64519 15.2002 9.45351 15.2002 10.2964C15.2002 11.1392 14.8651 11.9475 14.2696 12.544C13.6731 13.1395 12.8648 13.4746 12.022 13.4746C11.1791 13.4746 10.3708 13.1395 9.77528 12.544C9.17884 11.9475 8.84375 11.1392 8.84375 10.2964C8.84375 9.45351 9.17884 8.64519 9.77528 8.04969C10.3708 7.45325 11.1791 7.11816 12.022 7.11816Z" fill="black"/>
<path d="M21.2842 4.45801V13.8477C21.2842 14.8542 21.0376 15.7586 20.5488 16.5732C20.0535 17.3988 19.3959 18.0573 18.5703 18.5527C17.7578 19.0396 16.854 19.2842 15.8477 19.2842H6.45801V16.3262H15.8477C16.5265 16.3262 17.1208 16.0823 17.6016 15.6016C18.0811 15.122 18.3262 14.5277 18.3262 13.8477V4.45801H21.2842ZM7.93652 0.5H17.3262V3.45801H7.93652C7.27091 3.45801 6.68609 3.70638 6.20215 4.17773V4.17871C5.71125 4.65803 5.45801 5.25318 5.45801 5.93652V15.3262H2.5V5.93652L2.51172 5.56348C2.56525 4.70513 2.80462 3.92243 3.23047 3.20996L3.23145 3.21094C3.66416 2.48974 4.22409 1.89726 4.91504 1.42969L5.21973 1.23633C5.94288 0.806912 6.72457 0.565412 7.57031 0.511719L7.93652 0.5Z" fill="#0A0A0A" stroke="black"/>
<path d="M94.4743 14.6832V6.52166C94.4743 6.07177 94.3146 5.68721 93.9964 5.36799C93.6771 5.0497 93.2926 4.89009 92.8427 4.89009H84.6811V1.62695H92.8427C93.7434 1.62695 94.562 1.8491 95.2994 2.29153C96.0386 2.73209 96.6295 3.32199 97.0728 4.06124C97.5152 4.80049 97.7374 5.62094 97.7374 6.52166V14.6832H94.4743ZM86.3127 17.9464C85.411 17.9464 84.5915 17.7252 83.8523 17.2818C83.1149 16.8394 82.525 16.2495 82.0825 15.5121C81.6392 14.7728 81.418 13.9533 81.418 13.0517V4.89009H84.6811V13.0517C84.6811 13.5025 84.8398 13.8871 85.159 14.2053C85.4773 14.5246 85.8618 14.6832 86.3127 14.6832H94.4743V17.9464H86.3127Z" fill="#0A0A0A"/>
<path d="M71.0212 17.9464V6.52166C71.0212 6.07177 70.8569 5.68721 70.5283 5.36799C70.2016 5.0497 69.8134 4.89009 69.3635 4.89009H64.4688V1.62695H69.3635C70.2642 1.62695 71.0846 1.8491 71.8239 2.29153C72.5631 2.73209 73.154 3.32199 73.5973 4.06124C74.0398 4.80049 74.2619 5.62094 74.2619 6.52166V17.9464H71.0212ZM74.2619 4.89009V1.62695H80.7882V4.89009H74.2619Z" fill="#0A0A0A"/>
<path d="M54.068 17.9464V6.52166C54.068 6.07177 53.9038 5.68721 53.5752 5.36799C53.2485 5.0497 52.8602 4.89009 52.4103 4.89009H47.5156V1.62695H52.4103C53.3111 1.62695 54.1315 1.8491 54.8708 2.29153C55.61 2.73209 56.2008 3.32199 56.6442 4.06124C57.0866 4.80049 57.3088 5.62094 57.3088 6.52166V17.9464H54.068ZM57.3088 4.89009V1.62695H63.8351V4.89009H57.3088Z" fill="#0A0A0A"/>
<path d="M43.6227 14.6832V6.52166C43.6227 6.07177 43.4631 5.68721 43.1448 5.36799C42.8256 5.0497 42.441 4.89009 41.9911 4.89009H33.8295V1.62695H41.9911C42.8918 1.62695 43.7104 1.8491 44.4478 2.29153C45.1871 2.73209 45.7779 3.32199 46.2213 4.06124C46.6637 4.80049 46.8858 5.62094 46.8858 6.52166V14.6832H43.6227ZM35.4611 17.9464C34.5595 17.9464 33.7399 17.7252 33.0007 17.2818C32.2633 16.8394 31.6734 16.2495 31.231 15.5121C30.7876 14.7728 30.5664 13.9533 30.5664 13.0517V4.89009H33.8295V13.0517C33.8295 13.5025 33.9882 13.8871 34.3074 14.2053C34.6257 14.5246 35.0103 14.6832 35.4611 14.6832H43.6227V17.9464H35.4611Z" fill="#0A0A0A"/>
</svg>
