<svg width="1150" height="344" viewBox="0 0 1150 344" fill="none" xmlns="http://www.w3.org/2000/svg">
<g opacity="0.11">
<path d="M1092.92 265.874V126.554C1092.92 118.874 1090.2 112.31 1084.76 106.86C1079.31 101.427 1072.75 98.7026 1065.07 98.7026H925.75V43H1065.07C1080.45 43 1094.42 46.7921 1107.01 54.3445C1119.63 61.865 1129.71 71.9348 1137.28 84.5539C1144.83 97.173 1148.62 111.178 1148.62 126.554V265.874H1092.92ZM953.601 321.577C938.209 321.577 924.22 317.801 911.601 310.232C899.014 302.68 888.944 292.61 881.391 280.023C873.823 267.404 870.047 253.414 870.047 238.023V98.7026H925.75V238.023C925.75 245.719 928.458 252.283 933.907 257.716C939.341 263.166 945.905 265.874 953.601 265.874H1092.92V321.577H953.601Z" fill="black"/>
<path d="M692.578 321.577V126.554C692.578 118.874 689.774 112.31 684.165 106.86C678.589 101.427 671.96 98.7026 664.281 98.7026H580.727V43H664.281C679.656 43 693.661 46.7921 706.281 54.3445C718.9 61.865 728.985 71.9348 736.554 84.5539C744.106 97.173 747.898 111.178 747.898 126.554V321.577H692.578ZM747.898 98.7026V43H859.303V98.7026H747.898Z" fill="black"/>
<path d="M403.183 321.577V126.554C403.183 118.874 400.379 112.31 394.771 106.86C389.194 101.427 382.566 98.7026 374.886 98.7026H291.332V43H374.886C390.262 43 404.267 46.7921 416.886 54.3445C429.505 61.865 439.591 71.9348 447.159 84.5539C454.712 97.173 458.504 111.178 458.504 126.554V321.577H403.183ZM458.504 98.7026V43H569.909V98.7026H458.504Z" fill="black"/>
<path d="M224.874 265.874V126.554C224.874 118.874 222.15 112.31 216.716 106.86C211.267 101.427 204.703 98.7026 197.023 98.7026H57.7026V43H197.023C212.399 43 226.372 46.7921 238.959 54.3445C251.578 61.865 261.664 71.9348 269.232 84.5539C276.785 97.173 280.577 111.178 280.577 126.554V265.874H224.874ZM85.5539 321.577C70.1624 321.577 56.173 317.801 43.5539 310.232C30.9666 302.68 20.8968 292.61 13.3445 280.023C5.77618 267.404 2 253.414 2 238.023V98.7026H57.7026V238.023C57.7026 245.719 60.4113 252.283 65.8605 257.716C71.2937 263.166 77.8582 265.874 85.5539 265.874H224.874V321.577H85.5539Z" fill="black"/>
</g>
</svg>
